<svg width="20" height="20" viewBox="0 0 20 20" fill="none" xmlns="http://www.w3.org/2000/svg">
<path d="M17.1214 7C18.9237 8.63636 18.9237 11.1818 17.1214 12.9091L18.1227 13.8182C20.6258 11.7273 20.6258 8.27273 18.1227 6.09091L17.1214 7ZM16.02 8L15.0188 8.90909C15.5194 9.54545 15.5194 10.3636 15.0188 11L16.02 11.9091C17.2215 10.8182 17.2215 9.18182 16.02 8ZM12.015 0H2.0025C1.47141 0 0.962062 0.191558 0.58652 0.532533C0.210977 0.873508 0 1.33597 0 1.81818V18.1818C0 18.664 0.210977 19.1265 0.58652 19.4675C0.962062 19.8084 1.47141 20 2.0025 20H12.015C12.5461 20 13.0555 19.8084 13.431 19.4675C13.8065 19.1265 14.0175 18.664 14.0175 18.1818V1.81818C14.0175 1.33597 13.8065 0.873508 13.431 0.532533C13.0555 0.191558 12.5461 0 12.015 0ZM12.015 17.2727H2.0025V2.72727H12.015V17.2727Z" fill="white"/>
</svg>
