<svg width="27" height="24" viewBox="0 0 27 24" fill="none" xmlns="http://www.w3.org/2000/svg">
<path d="M2.00371 2.24449L3.34189 0.833374L20.8219 19.4112L19.4942 20.8334L16.2742 17.4112C15.0719 17.8334 13.7964 18.0556 12.4583 18.0556C7.23098 18.0556 2.76689 14.6 0.958252 9.72226C1.67962 7.76671 2.82962 6.04449 4.29325 4.67782L2.00371 2.24449ZM12.4583 6.38893C13.2901 6.38893 14.0878 6.74012 14.676 7.36524C15.2642 7.99036 15.5946 8.83821 15.5946 9.72226C15.5946 10.1112 15.5319 10.4889 15.4169 10.8334L11.4128 6.57782C11.7369 6.4556 12.0923 6.38893 12.4583 6.38893ZM12.4583 1.38893C17.6855 1.38893 22.1496 4.84449 23.9583 9.72226C23.101 12.0334 21.6478 14.0334 19.7764 15.4889L18.2919 13.9C19.7137 12.8556 20.8846 11.4334 21.6792 9.72226C19.9542 5.98893 16.3892 3.61115 12.4583 3.61115C11.3187 3.61115 10.2001 3.81115 9.15462 4.16671L7.54462 2.46671C9.05007 1.77782 10.7123 1.38893 12.4583 1.38893ZM3.23734 9.72226C4.96234 13.4556 8.52734 15.8334 12.4583 15.8334C13.1796 15.8334 13.8905 15.7556 14.5492 15.6L12.1655 13.0556C10.6705 12.8889 9.47871 11.6223 9.32189 10.0334L5.76734 6.24449C4.73234 7.18893 3.86462 8.36671 3.23734 9.72226Z" fill="white"/>
</svg>
